<?xml version="1.0" encoding="UTF-8" standalone="no"?>
<!-- Created with Inkscape (http://www.inkscape.org/) -->

<svg
   xmlns:dc="http://purl.org/dc/elements/1.1/"
   xmlns:cc="http://creativecommons.org/ns#"
   xmlns:rdf="http://www.w3.org/1999/02/22-rdf-syntax-ns#"
   xmlns:svg="http://www.w3.org/2000/svg"
   xmlns="http://www.w3.org/2000/svg"
   xmlns:xlink="http://www.w3.org/1999/xlink"
   xmlns:sodipodi="http://sodipodi.sourceforge.net/DTD/sodipodi-0.dtd"
   xmlns:inkscape="http://www.inkscape.org/namespaces/inkscape"
   width="440"
   height="280"
   viewBox="0 0 440 280"
   id="svg2"
   version="1.1"
   inkscape:version="0.91 r13725"
   sodipodi:docname="promo-small.svg"
   inkscape:export-filename="/Users/user/Development/google-drive-encryption/store/promo-small.png"
   inkscape:export-xdpi="90"
   inkscape:export-ydpi="90">
  <defs
     id="defs4">
    <linearGradient
       id="A">
      <stop
         id="O" />
      <stop
         stop-opacity="0"
         id="P"
         offset="1" />
    </linearGradient>
    <linearGradient
       id="C">
      <stop
         stop-color="#fff"
         id="S" />
      <stop
         stop-opacity="0"
         stop-color="#fff"
         id="T"
         offset="1" />
    </linearGradient>
    <linearGradient
       id="D">
      <stop
         stop-color="#eee"
         id="U" />
      <stop
         stop-color="#ddd"
         id="V"
         offset="1" />
    </linearGradient>
    <radialGradient
       gradientUnits="userSpaceOnUse"
       gradientTransform="matrix(2.1949266,-0.30010827,0.15455608,1.1303889,63.18787,734.78899)"
       r="55.766"
       cy="62.08"
       cx="36.794"
       id="E"
       xlink:href="#D" />
    <radialGradient
       gradientUnits="userSpaceOnUse"
       gradientTransform="matrix(4.5346919,-0.69905264,0.39926383,2.5899881,-13.625037,819.5459)"
       r="62.2"
       cy="16.985"
       cx="28.02"
       id="F"
       xlink:href="#D" />
    <filter
       height="1.792"
       y="-0.396"
       width="1.025"
       x="-0.012"
       id="G">
      <feGaussianBlur
         id="W"
         stdDeviation="0.59926" />
    </filter>
    <linearGradient
       gradientUnits="userSpaceOnUse"
       y2="25.688"
       x2="0"
       y1="29.321"
       id="H"
       xlink:href="#A" />
    <radialGradient
       gradientUnits="userSpaceOnUse"
       gradientTransform="matrix(5.1591334,0.07604446,-0.03541838,2.4029118,-52.47437,767.36294)"
       r="53.55"
       cy="-3.245"
       cx="52.981"
       id="I"
       xlink:href="#C" />
    <radialGradient
       gradientUnits="userSpaceOnUse"
       gradientTransform="matrix(5.6498999,-0.12236968,0.03884627,1.7935622,-121.49857,820.85618)"
       r="59.896"
       cy="-21.826"
       cx="58"
       id="J"
       xlink:href="#C" />
    <linearGradient
       gradientUnits="userSpaceOnUse"
       y2="101.48"
       x2="0"
       y1="109.56"
       id="K"
       xlink:href="#A" />
    <radialGradient
       gradientUnits="userSpaceOnUse"
       gradientTransform="matrix(1,0,0,0.05882353,0,100.42419)"
       r="63.15"
       cy="106.7"
       cx="65.14"
       id="L"
       xlink:href="#A" />
    <filter
       id="M">
      <feGaussianBlur
         id="X"
         stdDeviation="1.88808" />
    </filter>
    <filter
       height="1.689"
       y="-0.345"
       width="1.041"
       x="-0.02"
       id="N">
      <feGaussianBlur
         id="Y"
         stdDeviation="1.06662" />
    </filter>
  </defs>
  <sodipodi:namedview
     id="base"
     pagecolor="#ffffff"
     bordercolor="#666666"
     borderopacity="1.0"
     inkscape:pageopacity="0.0"
     inkscape:pageshadow="2"
     inkscape:zoom="0.98994949"
     inkscape:cx="260.51046"
     inkscape:cy="64.770945"
     inkscape:document-units="px"
     inkscape:current-layer="layer1"
     showgrid="false"
     units="px"
     inkscape:window-width="1234"
     inkscape:window-height="913"
     inkscape:window-x="189"
     inkscape:window-y="65"
     inkscape:window-maximized="0" />
  <metadata
     id="metadata7">
    <rdf:RDF>
      <cc:Work
         rdf:about="">
        <dc:format>image/svg+xml</dc:format>
        <dc:type
           rdf:resource="http://purl.org/dc/dcmitype/StillImage" />
        <dc:title></dc:title>
      </cc:Work>
    </rdf:RDF>
  </metadata>
  <g
     inkscape:label="Layer 1"
     inkscape:groupmode="layer"
     id="layer1"
     transform="translate(0,-772.36214)"
     style="display:inline">
    <path
       style="fill:#000000;fill-opacity:1;stroke-width:2;stroke-linecap:round;stroke-linejoin:bevel"
       inkscape:connector-curvature="0"
       id="2"
       d="m 92.700274,775.071 c -9.50108,0 -17.350284,7.84923 -17.350284,17.35029 l 0,11.04109 c -8.194673,1.36287 -14.633826,8.27701 -14.633826,16.82451 l 0,213.37341 c 10e-7,9.5011 7.849195,17.3503 17.350285,17.3503 l 291.099221,0 c 9.50109,0 17.43792,-7.7849 17.43792,-17.3503 l 0,-213.37341 c 0,-9.56536 -7.93683,-17.35029 -17.43792,-17.35029 l -167.6318,0 0,-10.51531 c 0,-9.50108 -7.84919,-17.35029 -17.35027,-17.35029 l -91.483326,0 z" />
    <path
       style="fill:#f0f0f0;fill-opacity:1;stroke-width:5.579;stroke-linecap:round;stroke-linejoin:bevel;stroke-miterlimit:4;stroke-dasharray:none"
       inkscape:connector-curvature="0"
       d="m 92.679543,781.62066 c -5.979292,0 -10.778206,4.79893 -10.778206,10.77822 l 0,17.0874 -3.855619,0 c -5.979295,0 -10.778209,4.79893 -10.778209,10.7782 l 0,213.37352 c 0,5.9792 4.798914,10.7782 10.778209,10.7782 l 291.099242,0 c 5.97926,0 10.86585,-4.799 10.86585,-10.7782 l 0,-213.37352 c 0,-5.97927 -4.88656,-10.7782 -10.86585,-10.7782 l -174.20388,0 0,-17.0874 c 0,-5.97928 -4.79894,-10.77822 -10.77821,-10.77822 l -91.483327,0 z"
       id="3" />
    <path
       style="fill:#000000;fill-opacity:1;stroke-width:1.949;stroke-linecap:round;stroke-linejoin:bevel"
       inkscape:connector-curvature="0"
       id="6"
       d="m 385.55205,818.79722 -329.042015,1.48967 c -9.105062,0 -16.649265,7.54421 -16.649265,16.64926 -0.003,0.11682 -0.003,0.23371 0,0.35051 l 10.252441,197.24994 0,0.3505 0.08763,0 c 0.20437,9.005 7.66838,16.2989 16.649262,16.2989 l 313.531916,0 c 9.10507,0 16.64927,-7.5442 16.64927,-16.6494 l 5.17002,-198.91486 c 7.6e-4,-0.0583 7.6e-4,-0.11685 0,-0.17526 0,-9.10505 -7.5442,-16.64926 -16.64926,-16.64926 z" />
    <path
       style="fill:#f0f0f0;fill-opacity:1;stroke-width:1.949;stroke-linecap:round;stroke-linejoin:bevel"
       inkscape:connector-curvature="0"
       d="m 56.528868,827.02248 328.982172,-1.52132 c 5.49706,0 9.92255,4.42544 9.92255,9.92251 l -5.1124,199.12083 c 0,5.497 -4.42546,9.9225 -9.92252,9.9225 l -313.591983,0 c -5.497075,0 -9.922513,-4.4255 -9.922513,-9.9225 L 46.606347,836.945 c 0,-5.49707 4.425446,-9.92252 9.922521,-9.92252 z"
       id="7" />
  </g>
  <g
     inkscape:groupmode="layer"
     id="layer2"
     inkscape:label="Layer 2"
     style="display:inline">
    <path
       style="fill:#000000;fill-opacity:1"
       d="m 223.12882,73.275119 c -46.94578,0 -57.30268,9.378494 -58.05355,52.573761 -0.38106,21.92159 -0.37771,21.9235 -4.32204,21.9235 -20.05894,0 -21.99314,4.90395 -21.99314,55.86859 0,47.44954 0.95625,51.21378 13.92797,54.85881 2.09842,0.58967 23.59974,0.88119 69.09581,0.93579 92.29653,0.11069 83.53993,5.76959 83.9204,-54.24076 0.33316,-52.55004 -1.51514,-57.42243 -21.81032,-57.42243 -3.94436,0 -3.94531,-0.002 -4.32639,-21.9235 C 278.8231,83.022226 268.36025,73.275119 223.12882,73.275119 Z m -0.80523,25.222694 c 30.0182,0 29.03078,-0.968137 29.42721,28.904907 0.27029,20.3696 0.27213,20.36966 -29.37498,20.36966 -29.64708,0 -29.64918,-0.002 -29.64918,-19.62538 0,-30.145976 -0.49061,-29.649187 29.59695,-29.649187 z m 0,74.105537 c 15.76762,-2e-5 23.62488,19.1652 11.21202,27.34671 -2.50999,1.65437 -2.51138,1.65638 -2.51138,16.97472 0,12.89111 -0.21563,15.51327 -1.3667,16.53946 -0.97751,0.87146 -3.06849,1.21872 -7.33394,1.21872 -8.93132,0 -8.70498,0.46224 -8.70498,-17.75818 0,-15.31834 -10e-4,-15.32035 -2.51139,-16.97472 -12.41285,-8.18151 -4.55126,-27.34671 11.21637,-27.34671 z"
       id="path3471"
       inkscape:connector-curvature="0" />
  </g>
</svg>
